<svg version="1.0" preserveAspectRatio="xMidYMid meet" height="40" viewBox="0 0 82.5 30.000001" zoomAndPan="magnify" width="110" xmlns:xlink="http://www.w3.org/1999/xlink" xmlns="http://www.w3.org/2000/svg"><defs><clipPath id="5b46bfc109"><path clip-rule="nonzero" d="M 1.089844 0 L 80.925781 0 L 80.925781 29.03125 L 1.089844 29.03125 Z M 1.089844 0"></path></clipPath><clipPath id="0fffa89f29"><path clip-rule="nonzero" d="M 0.71875 1.894531 L 2.605469 1.894531 L 2.605469 11 L 0.71875 11 Z M 0.71875 1.894531"></path></clipPath><clipPath id="eeaab6f263"><path clip-rule="nonzero" d="M 1.0625 2.140625 C 1.230469 1.976562 1.429688 1.894531 1.664062 1.894531 C 1.894531 1.894531 2.09375 1.976562 2.261719 2.140625 C 2.425781 2.308594 2.507812 2.507812 2.507812 2.742188 C 2.507812 2.976562 2.425781 3.175781 2.261719 3.339844 C 2.09375 3.507812 1.894531 3.589844 1.660156 3.589844 C 1.425781 3.589844 1.226562 3.507812 1.058594 3.339844 C 0.894531 3.175781 0.8125 2.976562 0.8125 2.742188 C 0.8125 2.507812 0.894531 2.308594 1.0625 2.140625 M 0.71875 4.230469 L 2.605469 4.230469 L 2.605469 10.996094 L 0.71875 10.996094 Z M 0.71875 4.230469"></path></clipPath><clipPath id="5afc2e947c"><path clip-rule="nonzero" d="M 0.71875 0.894531 L 2.605469 0.894531 L 2.605469 10 L 0.71875 10 Z M 0.71875 0.894531"></path></clipPath><clipPath id="cbcec734d2"><path clip-rule="nonzero" d="M 1.0625 1.140625 C 1.230469 0.976562 1.429688 0.894531 1.664062 0.894531 C 1.894531 0.894531 2.09375 0.976562 2.261719 1.140625 C 2.425781 1.308594 2.507812 1.507812 2.507812 1.742188 C 2.507812 1.976562 2.425781 2.175781 2.261719 2.339844 C 2.09375 2.507812 1.894531 2.589844 1.660156 2.589844 C 1.425781 2.589844 1.226562 2.507812 1.058594 2.339844 C 0.894531 2.175781 0.8125 1.976562 0.8125 1.742188 C 0.8125 1.507812 0.894531 1.308594 1.0625 1.140625 M 0.71875 3.230469 L 2.605469 3.230469 L 2.605469 9.996094 L 0.71875 9.996094 Z M 0.71875 3.230469"></path></clipPath><clipPath id="2ed4a3599d"><rect height="10" y="0" width="3" x="0"></rect></clipPath><clipPath id="edac057e5b"><path clip-rule="nonzero" d="M 7.367188 3.875 L 15.636719 3.875 L 15.636719 10.613281 L 7.367188 10.613281 Z M 7.367188 3.875"></path></clipPath><clipPath id="1d86e23f46"><path clip-rule="nonzero" d="M 13.769531 3.917969 L 15.625 3.917969 L 15.625 8.050781 C 15.625 8.75 15.378906 9.34375 14.882812 9.835938 C 14.390625 10.332031 13.796875 10.578125 13.101562 10.578125 C 12.515625 10.578125 11.988281 10.386719 11.511719 10.003906 C 11.054688 10.386719 10.519531 10.578125 9.917969 10.578125 C 9.226562 10.578125 8.636719 10.332031 8.144531 9.832031 C 7.648438 9.332031 7.402344 8.738281 7.402344 8.050781 L 7.402344 3.917969 L 9.257812 3.917969 L 9.257812 8.050781 C 9.257812 8.234375 9.324219 8.390625 9.453125 8.523438 C 9.582031 8.652344 9.734375 8.722656 9.917969 8.722656 C 10.097656 8.722656 10.253906 8.65625 10.386719 8.523438 C 10.515625 8.386719 10.582031 8.234375 10.582031 8.050781 L 10.582031 3.917969 L 12.441406 3.917969 L 12.441406 8.050781 C 12.441406 8.234375 12.507812 8.390625 12.636719 8.523438 C 12.765625 8.652344 12.917969 8.722656 13.101562 8.722656 C 13.28125 8.722656 13.4375 8.65625 13.570312 8.523438 C 13.699219 8.386719 13.769531 8.234375 13.769531 8.050781 Z M 13.769531 3.917969"></path></clipPath><clipPath id="b78dbf9e64"><path clip-rule="nonzero" d="M 0.367188 0.917969 L 8.636719 0.917969 L 8.636719 7.613281 L 0.367188 7.613281 Z M 0.367188 0.917969"></path></clipPath><clipPath id="2ebc2e183d"><path clip-rule="nonzero" d="M 6.769531 0.917969 L 8.625 0.917969 L 8.625 5.050781 C 8.625 5.75 8.378906 6.34375 7.882812 6.835938 C 7.390625 7.332031 6.796875 7.578125 6.101562 7.578125 C 5.515625 7.578125 4.988281 7.386719 4.511719 7.003906 C 4.054688 7.386719 3.519531 7.578125 2.917969 7.578125 C 2.226562 7.578125 1.636719 7.332031 1.144531 6.832031 C 0.648438 6.332031 0.402344 5.738281 0.402344 5.050781 L 0.402344 0.917969 L 2.257812 0.917969 L 2.257812 5.050781 C 2.257812 5.234375 2.324219 5.390625 2.453125 5.523438 C 2.582031 5.652344 2.734375 5.722656 2.917969 5.722656 C 3.097656 5.722656 3.253906 5.65625 3.386719 5.523438 C 3.515625 5.386719 3.582031 5.234375 3.582031 5.050781 L 3.582031 0.917969 L 5.441406 0.917969 L 5.441406 5.050781 C 5.441406 5.234375 5.507812 5.390625 5.636719 5.523438 C 5.765625 5.652344 5.917969 5.722656 6.101562 5.722656 C 6.28125 5.722656 6.4375 5.65625 6.570312 5.523438 C 6.699219 5.386719 6.769531 5.234375 6.769531 5.050781 Z M 6.769531 0.917969"></path></clipPath><clipPath id="d6a84cb6f9"><rect height="8" y="0" width="9" x="0"></rect></clipPath><clipPath id="c045e3304d"><path clip-rule="nonzero" d="M 16.335938 3.875 L 23 3.875 L 23 10.613281 L 16.335938 10.613281 Z M 16.335938 3.875"></path></clipPath><clipPath id="1622b1d621"><path clip-rule="nonzero" d="M 17.3125 4.894531 C 17.960938 4.242188 18.746094 3.917969 19.667969 3.917969 C 20.585938 3.917969 21.371094 4.242188 22.019531 4.894531 C 22.667969 5.542969 22.996094 6.328125 22.996094 7.246094 L 22.996094 10.578125 L 21.148438 10.578125 L 21.148438 7.25 C 21.148438 6.839844 21.003906 6.488281 20.714844 6.199219 C 20.425781 5.914062 20.074219 5.765625 19.667969 5.765625 C 19.261719 5.765625 18.917969 5.914062 18.628906 6.199219 C 18.339844 6.488281 18.195312 6.839844 18.195312 7.25 C 18.195312 7.660156 18.339844 8.007812 18.628906 8.296875 C 18.917969 8.585938 19.261719 8.730469 19.667969 8.730469 C 20.035156 8.730469 20.355469 8.609375 20.625 8.375 L 20.625 10.441406 C 20.300781 10.53125 19.980469 10.574219 19.667969 10.574219 C 18.746094 10.574219 17.960938 10.25 17.3125 9.601562 C 16.664062 8.949219 16.335938 8.164062 16.335938 7.246094 C 16.335938 6.328125 16.664062 5.542969 17.3125 4.894531"></path></clipPath><clipPath id="b74cda3152"><path clip-rule="nonzero" d="M 0.335938 0.917969 L 7 0.917969 L 7 7.613281 L 0.335938 7.613281 Z M 0.335938 0.917969"></path></clipPath><clipPath id="015e3644fd"><path clip-rule="nonzero" d="M 1.3125 1.894531 C 1.960938 1.242188 2.746094 0.917969 3.667969 0.917969 C 4.585938 0.917969 5.371094 1.242188 6.019531 1.894531 C 6.667969 2.542969 6.996094 3.328125 6.996094 4.246094 L 6.996094 7.578125 L 5.148438 7.578125 L 5.148438 4.25 C 5.148438 3.839844 5.003906 3.488281 4.714844 3.199219 C 4.425781 2.914062 4.074219 2.765625 3.667969 2.765625 C 3.261719 2.765625 2.917969 2.914062 2.628906 3.199219 C 2.339844 3.488281 2.195312 3.839844 2.195312 4.25 C 2.195312 4.660156 2.339844 5.007812 2.628906 5.296875 C 2.917969 5.585938 3.261719 5.730469 3.667969 5.730469 C 4.035156 5.730469 4.355469 5.609375 4.625 5.375 L 4.625 7.441406 C 4.300781 7.53125 3.980469 7.574219 3.667969 7.574219 C 2.746094 7.574219 1.960938 7.25 1.3125 6.601562 C 0.664062 5.949219 0.335938 5.164062 0.335938 4.246094 C 0.335938 3.328125 0.664062 2.542969 1.3125 1.894531"></path></clipPath><clipPath id="37c80f43bc"><rect height="8" y="0" width="7" x="0"></rect></clipPath><clipPath id="990b02ad80"><path clip-rule="nonzero" d="M 23.777344 3.875 L 29.726562 3.875 L 29.726562 10.613281 L 23.777344 10.613281 Z M 23.777344 3.875"></path></clipPath><clipPath id="93ccbcc489"><path clip-rule="nonzero" d="M 29.707031 10.578125 L 27.859375 10.578125 L 27.859375 6.871094 C 27.859375 6.574219 27.753906 6.3125 27.535156 6.09375 C 27.320312 5.871094 27.058594 5.765625 26.753906 5.765625 C 26.457031 5.765625 26.195312 5.875 25.980469 6.09375 C 25.761719 6.3125 25.648438 6.574219 25.648438 6.871094 L 25.648438 10.578125 L 23.789062 10.578125 L 23.789062 6.871094 C 23.789062 6.066406 24.082031 5.371094 24.667969 4.789062 C 25.25 4.207031 25.945312 3.917969 26.753906 3.917969 C 27.566406 3.917969 28.261719 4.207031 28.839844 4.78125 C 29.421875 5.359375 29.707031 6.054688 29.707031 6.871094 Z M 29.707031 10.578125"></path></clipPath><clipPath id="58c2851327"><path clip-rule="nonzero" d="M 0.777344 0.917969 L 6.726562 0.917969 L 6.726562 7.613281 L 0.777344 7.613281 Z M 0.777344 0.917969"></path></clipPath><clipPath id="dd4fc98c80"><path clip-rule="nonzero" d="M 6.707031 7.578125 L 4.859375 7.578125 L 4.859375 3.871094 C 4.859375 3.574219 4.753906 3.3125 4.535156 3.09375 C 4.320312 2.871094 4.058594 2.765625 3.753906 2.765625 C 3.457031 2.765625 3.195312 2.875 2.980469 3.09375 C 2.761719 3.3125 2.648438 3.574219 2.648438 3.871094 L 2.648438 7.578125 L 0.789062 7.578125 L 0.789062 3.871094 C 0.789062 3.066406 1.082031 2.371094 1.667969 1.789062 C 2.25 1.207031 2.945312 0.917969 3.753906 0.917969 C 4.566406 0.917969 5.261719 1.207031 5.839844 1.78125 C 6.421875 2.359375 6.707031 3.054688 6.707031 3.871094 Z M 6.707031 7.578125"></path></clipPath><clipPath id="78066466d9"><rect height="8" y="0" width="7" x="0"></rect></clipPath><clipPath id="fa434b88fe"><path clip-rule="nonzero" d="M 30.121094 2.035156 L 33.402344 2.035156 L 33.402344 10.613281 L 30.121094 10.613281 Z M 30.121094 2.035156"></path></clipPath><clipPath id="cc15597e70"><path clip-rule="nonzero" d="M 30.792969 8.175781 L 30.792969 4.953125 L 30.125 4.953125 L 30.125 3.917969 L 30.792969 3.917969 L 30.792969 2.070312 L 32.640625 2.070312 L 32.640625 3.917969 L 33.308594 3.917969 L 33.308594 4.949219 L 32.640625 4.949219 L 32.640625 8.175781 C 32.640625 8.332031 32.695312 8.460938 32.804688 8.566406 C 32.917969 8.675781 33.050781 8.730469 33.203125 8.730469 L 33.371094 8.730469 L 33.371094 10.574219 L 33.203125 10.574219 C 32.535156 10.574219 31.964844 10.339844 31.496094 9.871094 C 31.027344 9.402344 30.792969 8.835938 30.792969 8.175781"></path></clipPath><clipPath id="b87a32f58a"><path clip-rule="nonzero" d="M 0.121094 0.0585938 L 3.402344 0.0585938 L 3.402344 8.613281 L 0.121094 8.613281 Z M 0.121094 0.0585938"></path></clipPath><clipPath id="6c8dd5af4a"><path clip-rule="nonzero" d="M 0.792969 6.175781 L 0.792969 2.953125 L 0.125 2.953125 L 0.125 1.917969 L 0.792969 1.917969 L 0.792969 0.0703125 L 2.640625 0.0703125 L 2.640625 1.917969 L 3.308594 1.917969 L 3.308594 2.949219 L 2.640625 2.949219 L 2.640625 6.175781 C 2.640625 6.332031 2.695312 6.460938 2.804688 6.566406 C 2.917969 6.675781 3.050781 6.730469 3.203125 6.730469 L 3.371094 6.730469 L 3.371094 8.574219 L 3.203125 8.574219 C 2.535156 8.574219 1.964844 8.339844 1.496094 7.871094 C 1.027344 7.402344 0.792969 6.835938 0.792969 6.175781"></path></clipPath><clipPath id="c59fd3cf7f"><rect height="9" y="0" width="4" x="0"></rect></clipPath><clipPath id="c10d15cef4"><path clip-rule="nonzero" d="M 38.363281 1.785156 L 40.953125 1.785156 L 40.953125 13.25 L 38.363281 13.25 Z M 38.363281 1.785156"></path></clipPath><clipPath id="3f16ada44a"><path clip-rule="nonzero" d="M 39.417969 2.035156 C 39.578125 1.871094 39.773438 1.792969 40 1.792969 C 40.226562 1.792969 40.421875 1.871094 40.582031 2.035156 C 40.746094 2.195312 40.828125 2.390625 40.828125 2.617188 C 40.828125 2.84375 40.746094 3.039062 40.582031 3.199219 C 40.421875 3.363281 40.226562 3.445312 40 3.445312 C 39.773438 3.445312 39.578125 3.363281 39.417969 3.199219 C 39.253906 3.039062 39.175781 2.84375 39.175781 2.617188 C 39.175781 2.390625 39.253906 2.195312 39.417969 2.035156 M 40.910156 4.0625 L 40.910156 10.867188 C 40.910156 11.519531 40.675781 12.078125 40.214844 12.542969 C 39.75 13.003906 39.191406 13.238281 38.539062 13.238281 L 38.371094 13.238281 L 38.371094 11.414062 L 38.535156 11.414062 C 38.6875 11.414062 38.816406 11.363281 38.921875 11.257812 C 39.027344 11.148438 39.082031 11.023438 39.082031 10.871094 L 39.082031 4.0625 Z M 40.910156 4.0625"></path></clipPath><clipPath id="226b560b23"><path clip-rule="nonzero" d="M 0.363281 0.785156 L 2.953125 0.785156 L 2.953125 12.25 L 0.363281 12.25 Z M 0.363281 0.785156"></path></clipPath><clipPath id="52924bf26b"><path clip-rule="nonzero" d="M 1.417969 1.035156 C 1.578125 0.871094 1.773438 0.792969 2 0.792969 C 2.226562 0.792969 2.421875 0.871094 2.582031 1.035156 C 2.746094 1.195312 2.828125 1.390625 2.828125 1.617188 C 2.828125 1.84375 2.746094 2.039062 2.582031 2.199219 C 2.421875 2.363281 2.226562 2.445312 2 2.445312 C 1.773438 2.445312 1.578125 2.363281 1.417969 2.199219 C 1.253906 2.039062 1.175781 1.84375 1.175781 1.617188 C 1.175781 1.390625 1.253906 1.195312 1.417969 1.035156 M 2.910156 3.0625 L 2.910156 9.867188 C 2.910156 10.519531 2.675781 11.078125 2.214844 11.542969 C 1.75 12.003906 1.191406 12.238281 0.539062 12.238281 L 0.371094 12.238281 L 0.371094 10.414062 L 0.535156 10.414062 C 0.6875 10.414062 0.816406 10.363281 0.921875 10.257812 C 1.027344 10.148438 1.082031 10.023438 1.082031 9.871094 L 1.082031 3.0625 Z M 2.910156 3.0625"></path></clipPath><clipPath id="d1083c7638"><rect height="13" y="0" width="3" x="0"></rect></clipPath><clipPath id="681d7ae6fa"><path clip-rule="nonzero" d="M 41.613281 4.042969 L 48.230469 4.042969 L 48.230469 10.65625 L 41.613281 10.65625 Z M 41.613281 4.042969"></path></clipPath><clipPath id="944bcb70d8"><path clip-rule="nonzero" d="M 42.605469 5.027344 C 43.246094 4.386719 44.023438 4.0625 44.929688 4.0625 C 45.835938 4.0625 46.613281 4.386719 47.253906 5.027344 C 47.894531 5.667969 48.21875 6.445312 48.21875 7.351562 C 48.21875 7.503906 48.207031 7.652344 48.1875 7.796875 L 44.070312 7.796875 L 44.070312 6.691406 L 46.238281 6.691406 C 46.121094 6.453125 45.945312 6.257812 45.707031 6.109375 C 45.46875 5.960938 45.210938 5.886719 44.929688 5.886719 C 44.53125 5.886719 44.1875 6.03125 43.898438 6.316406 C 43.613281 6.601562 43.464844 6.949219 43.464844 7.351562 C 43.464844 7.757812 43.609375 8.101562 43.898438 8.382812 C 44.1875 8.664062 44.53125 8.804688 44.929688 8.804688 C 45.164062 8.804688 45.390625 8.75 45.609375 8.640625 L 47.953125 8.640625 C 47.695312 9.242188 47.300781 9.722656 46.757812 10.089844 C 46.214844 10.457031 45.601562 10.640625 44.929688 10.640625 C 44.023438 10.640625 43.246094 10.320312 42.605469 9.675781 C 41.964844 9.035156 41.640625 8.261719 41.640625 7.351562 C 41.640625 6.445312 41.964844 5.667969 42.605469 5.027344"></path></clipPath><clipPath id="3d8798643c"><path clip-rule="nonzero" d="M 0.613281 0.0429688 L 7.230469 0.0429688 L 7.230469 6.652344 L 0.613281 6.652344 Z M 0.613281 0.0429688"></path></clipPath><clipPath id="595e08788a"><path clip-rule="nonzero" d="M 1.605469 1.027344 C 2.246094 0.386719 3.023438 0.0625 3.929688 0.0625 C 4.835938 0.0625 5.613281 0.386719 6.253906 1.027344 C 6.894531 1.667969 7.21875 2.445312 7.21875 3.351562 C 7.21875 3.503906 7.207031 3.652344 7.1875 3.796875 L 3.070312 3.796875 L 3.070312 2.691406 L 5.238281 2.691406 C 5.121094 2.453125 4.945312 2.257812 4.707031 2.109375 C 4.46875 1.960938 4.210938 1.886719 3.929688 1.886719 C 3.53125 1.886719 3.1875 2.03125 2.898438 2.316406 C 2.613281 2.601562 2.464844 2.949219 2.464844 3.351562 C 2.464844 3.757812 2.609375 4.101562 2.898438 4.382812 C 3.1875 4.664062 3.53125 4.804688 3.929688 4.804688 C 4.164062 4.804688 4.390625 4.75 4.609375 4.640625 L 6.953125 4.640625 C 6.695312 5.242188 6.300781 5.722656 5.757812 6.089844 C 5.214844 6.457031 4.601562 6.640625 3.929688 6.640625 C 3.023438 6.640625 2.246094 6.320312 1.605469 5.675781 C 0.964844 5.035156 0.640625 4.261719 0.640625 3.351562 C 0.640625 2.445312 0.964844 1.667969 1.605469 1.027344"></path></clipPath><clipPath id="dc73725720"><rect height="7" y="0" width="8" x="0"></rect></clipPath><clipPath id="d63ae1fc56"><path clip-rule="nonzero" d="M 48.945312 4.042969 L 57.101562 4.042969 L 57.101562 10.65625 L 48.945312 10.65625 Z M 48.945312 4.042969"></path></clipPath><clipPath id="97c69b8d00"><path clip-rule="nonzero" d="M 55.261719 4.0625 L 57.097656 4.0625 L 57.097656 8.144531 C 57.097656 8.832031 56.851562 9.421875 56.363281 9.910156 C 55.875 10.394531 55.289062 10.640625 54.601562 10.640625 C 54.023438 10.640625 53.5 10.453125 53.03125 10.074219 C 52.578125 10.453125 52.050781 10.640625 51.457031 10.640625 C 50.773438 10.640625 50.191406 10.394531 49.703125 9.902344 C 49.214844 9.410156 48.972656 8.824219 48.972656 8.144531 L 48.972656 4.0625 L 50.804688 4.0625 L 50.804688 8.144531 C 50.804688 8.324219 50.871094 8.480469 51 8.609375 C 51.125 8.738281 51.277344 8.804688 51.457031 8.804688 C 51.632812 8.804688 51.789062 8.742188 51.917969 8.609375 C 52.050781 8.476562 52.113281 8.324219 52.113281 8.144531 L 52.113281 4.0625 L 53.949219 4.0625 L 53.949219 8.144531 C 53.949219 8.324219 54.011719 8.480469 54.140625 8.609375 C 54.269531 8.738281 54.417969 8.804688 54.597656 8.804688 C 54.777344 8.804688 54.929688 8.742188 55.0625 8.609375 C 55.191406 8.476562 55.257812 8.324219 55.257812 8.144531 Z M 55.261719 4.0625"></path></clipPath><clipPath id="4a16cc5d22"><path clip-rule="nonzero" d="M 0.945312 0.0429688 L 9.101562 0.0429688 L 9.101562 6.652344 L 0.945312 6.652344 Z M 0.945312 0.0429688"></path></clipPath><clipPath id="ac4a733523"><path clip-rule="nonzero" d="M 7.261719 0.0625 L 9.097656 0.0625 L 9.097656 4.144531 C 9.097656 4.832031 8.851562 5.421875 8.363281 5.910156 C 7.875 6.394531 7.289062 6.640625 6.601562 6.640625 C 6.023438 6.640625 5.5 6.453125 5.03125 6.074219 C 4.578125 6.453125 4.050781 6.640625 3.457031 6.640625 C 2.773438 6.640625 2.191406 6.394531 1.703125 5.902344 C 1.214844 5.410156 0.972656 4.824219 0.972656 4.144531 L 0.972656 0.0625 L 2.804688 0.0625 L 2.804688 4.144531 C 2.804688 4.324219 2.871094 4.480469 3 4.609375 C 3.125 4.738281 3.277344 4.804688 3.457031 4.804688 C 3.632812 4.804688 3.789062 4.742188 3.917969 4.609375 C 4.050781 4.476562 4.113281 4.324219 4.113281 4.144531 L 4.113281 0.0625 L 5.949219 0.0625 L 5.949219 4.144531 C 5.949219 4.324219 6.011719 4.480469 6.140625 4.609375 C 6.269531 4.738281 6.417969 4.804688 6.597656 4.804688 C 6.777344 4.804688 6.929688 4.742188 7.0625 4.609375 C 7.191406 4.476562 7.257812 4.324219 7.257812 4.144531 Z M 7.261719 0.0625"></path></clipPath><clipPath id="b7cd051eb2"><rect height="7" y="0" width="10" x="0"></rect></clipPath><clipPath id="cfb4abbd77"><path clip-rule="nonzero" d="M 57.820312 4.042969 L 64.433594 4.042969 L 64.433594 10.65625 L 57.820312 10.65625 Z M 57.820312 4.042969"></path></clipPath><clipPath id="75cea7f5a8"><path clip-rule="nonzero" d="M 58.78125 5.027344 C 59.421875 4.386719 60.199219 4.0625 61.105469 4.0625 C 62.011719 4.0625 62.789062 4.386719 63.429688 5.027344 C 64.074219 5.667969 64.394531 6.445312 64.394531 7.351562 C 64.394531 7.503906 64.382812 7.652344 64.363281 7.796875 L 60.25 7.796875 L 60.25 6.691406 L 62.417969 6.691406 C 62.300781 6.453125 62.125 6.257812 61.886719 6.109375 C 61.648438 5.960938 61.390625 5.886719 61.109375 5.886719 C 60.710938 5.886719 60.367188 6.03125 60.078125 6.316406 C 59.789062 6.601562 59.644531 6.949219 59.644531 7.351562 C 59.644531 7.757812 59.789062 8.101562 60.078125 8.382812 C 60.367188 8.664062 60.710938 8.804688 61.109375 8.804688 C 61.34375 8.804688 61.570312 8.75 61.789062 8.640625 L 64.132812 8.640625 C 63.875 9.242188 63.480469 9.722656 62.933594 10.089844 C 62.390625 10.457031 61.785156 10.640625 61.113281 10.640625 C 60.203125 10.640625 59.429688 10.320312 58.785156 9.675781 C 58.144531 9.035156 57.824219 8.261719 57.824219 7.351562 C 57.824219 6.445312 58.144531 5.667969 58.785156 5.027344"></path></clipPath><clipPath id="769e73ce57"><path clip-rule="nonzero" d="M 0.820312 0.0429688 L 7.433594 0.0429688 L 7.433594 6.652344 L 0.820312 6.652344 Z M 0.820312 0.0429688"></path></clipPath><clipPath id="cedfd0187c"><path clip-rule="nonzero" d="M 1.78125 1.027344 C 2.421875 0.386719 3.199219 0.0625 4.105469 0.0625 C 5.011719 0.0625 5.789062 0.386719 6.429688 1.027344 C 7.074219 1.667969 7.394531 2.445312 7.394531 3.351562 C 7.394531 3.503906 7.382812 3.652344 7.363281 3.796875 L 3.25 3.796875 L 3.25 2.691406 L 5.417969 2.691406 C 5.300781 2.453125 5.125 2.257812 4.886719 2.109375 C 4.648438 1.960938 4.390625 1.886719 4.109375 1.886719 C 3.710938 1.886719 3.367188 2.03125 3.078125 2.316406 C 2.789062 2.601562 2.644531 2.949219 2.644531 3.351562 C 2.644531 3.757812 2.789062 4.101562 3.078125 4.382812 C 3.367188 4.664062 3.710938 4.804688 4.109375 4.804688 C 4.34375 4.804688 4.570312 4.75 4.789062 4.640625 L 7.132812 4.640625 C 6.875 5.242188 6.480469 5.722656 5.933594 6.089844 C 5.390625 6.457031 4.785156 6.640625 4.113281 6.640625 C 3.203125 6.640625 2.429688 6.320312 1.785156 5.675781 C 1.144531 5.035156 0.824219 4.261719 0.824219 3.351562 C 0.824219 2.445312 1.144531 1.667969 1.785156 1.027344"></path></clipPath><clipPath id="b7c9f9cd6c"><rect height="7" y="0" width="8" x="0"></rect></clipPath><clipPath id="3dc0ea39cb"><path clip-rule="nonzero" d="M 65.148438 2.226562 L 68.457031 2.226562 L 68.457031 10.65625 L 65.148438 10.65625 Z M 65.148438 2.226562"></path></clipPath><clipPath id="ed430c3c2e"><path clip-rule="nonzero" d="M 65.160156 7.351562 L 65.160156 2.238281 L 66.984375 2.238281 L 66.984375 7.351562 C 66.984375 7.757812 67.125 8.101562 67.410156 8.386719 C 67.695312 8.671875 68.039062 8.816406 68.4375 8.816406 L 68.4375 10.640625 C 67.527344 10.640625 66.757812 10.320312 66.117188 9.675781 C 65.476562 9.035156 65.160156 8.261719 65.160156 7.351562"></path></clipPath><clipPath id="7b1c85036b"><path clip-rule="nonzero" d="M 0.148438 0.226562 L 3.457031 0.226562 L 3.457031 8.652344 L 0.148438 8.652344 Z M 0.148438 0.226562"></path></clipPath><clipPath id="eea646881e"><path clip-rule="nonzero" d="M 0.160156 5.351562 L 0.160156 0.238281 L 1.984375 0.238281 L 1.984375 5.351562 C 1.984375 5.757812 2.125 6.101562 2.410156 6.386719 C 2.695312 6.671875 3.039062 6.816406 3.4375 6.816406 L 3.4375 8.640625 C 2.527344 8.640625 1.757812 8.320312 1.117188 7.675781 C 0.476562 7.035156 0.160156 6.261719 0.160156 5.351562"></path></clipPath><clipPath id="7457979c15"><rect height="9" y="0" width="4" x="0"></rect></clipPath><clipPath id="445783ffac"><path clip-rule="nonzero" d="M 69.171875 4.042969 L 73.472656 4.042969 L 73.472656 10.65625 L 69.171875 10.65625 Z M 69.171875 4.042969"></path></clipPath><clipPath id="9c6c308e09"><path clip-rule="nonzero" d="M 71.304688 10.640625 C 70.691406 10.640625 70.191406 10.425781 69.800781 9.992188 C 69.410156 9.558594 69.210938 9.03125 69.210938 8.414062 L 71.066406 8.414062 C 71.046875 8.4375 71.039062 8.480469 71.039062 8.535156 C 71.039062 8.605469 71.066406 8.664062 71.117188 8.722656 C 71.167969 8.777344 71.230469 8.804688 71.308594 8.804688 C 71.382812 8.804688 71.449219 8.777344 71.5 8.726562 C 71.554688 8.675781 71.585938 8.613281 71.585938 8.539062 C 71.585938 8.40625 71.519531 8.316406 71.386719 8.269531 L 70.5625 7.9375 C 70.183594 7.785156 69.878906 7.542969 69.644531 7.207031 C 69.410156 6.867188 69.292969 6.492188 69.292969 6.070312 C 69.292969 5.507812 69.492188 5.03125 69.890625 4.644531 C 70.289062 4.257812 70.769531 4.0625 71.332031 4.0625 C 71.863281 4.0625 72.320312 4.25 72.707031 4.628906 C 73.089844 5.007812 73.292969 5.460938 73.316406 5.988281 L 71.46875 5.988281 C 71.433594 5.917969 71.378906 5.886719 71.304688 5.886719 C 71.257812 5.886719 71.214844 5.902344 71.179688 5.941406 C 71.144531 5.976562 71.128906 6.019531 71.128906 6.070312 C 71.128906 6.144531 71.160156 6.199219 71.222656 6.226562 L 72.121094 6.597656 C 72.511719 6.761719 72.824219 7.023438 73.0625 7.378906 C 73.300781 7.734375 73.417969 8.125 73.417969 8.546875 C 73.417969 9.128906 73.214844 9.625 72.800781 10.03125 C 72.386719 10.4375 71.890625 10.640625 71.308594 10.640625"></path></clipPath><clipPath id="91a900456b"><path clip-rule="nonzero" d="M 0.171875 0.0429688 L 4.472656 0.0429688 L 4.472656 6.652344 L 0.171875 6.652344 Z M 0.171875 0.0429688"></path></clipPath><clipPath id="11d8686699"><path clip-rule="nonzero" d="M 2.304688 6.640625 C 1.691406 6.640625 1.191406 6.425781 0.800781 5.992188 C 0.410156 5.558594 0.210938 5.03125 0.210938 4.414062 L 2.066406 4.414062 C 2.046875 4.4375 2.039062 4.480469 2.039062 4.535156 C 2.039062 4.605469 2.066406 4.664062 2.117188 4.722656 C 2.167969 4.777344 2.230469 4.804688 2.308594 4.804688 C 2.382812 4.804688 2.449219 4.777344 2.5 4.726562 C 2.554688 4.675781 2.585938 4.613281 2.585938 4.539062 C 2.585938 4.40625 2.519531 4.316406 2.386719 4.269531 L 1.5625 3.9375 C 1.183594 3.785156 0.878906 3.542969 0.644531 3.207031 C 0.410156 2.867188 0.292969 2.492188 0.292969 2.070312 C 0.292969 1.507812 0.492188 1.03125 0.890625 0.644531 C 1.289062 0.257812 1.769531 0.0625 2.332031 0.0625 C 2.863281 0.0625 3.320312 0.25 3.707031 0.628906 C 4.089844 1.007812 4.292969 1.460938 4.316406 1.988281 L 2.46875 1.988281 C 2.433594 1.917969 2.378906 1.886719 2.304688 1.886719 C 2.257812 1.886719 2.214844 1.902344 2.179688 1.941406 C 2.144531 1.976562 2.128906 2.019531 2.128906 2.070312 C 2.128906 2.144531 2.160156 2.199219 2.222656 2.226562 L 3.121094 2.597656 C 3.511719 2.761719 3.824219 3.023438 4.0625 3.378906 C 4.300781 3.734375 4.417969 4.125 4.417969 4.546875 C 4.417969 5.128906 4.214844 5.625 3.800781 6.03125 C 3.386719 6.4375 2.890625 6.640625 2.308594 6.640625"></path></clipPath><clipPath id="6b2bd022cb"><rect height="7" y="0" width="5" x="0"></rect></clipPath><clipPath id="05ab063ad8"><path clip-rule="nonzero" d="M 39.230469 1.792969 L 40.8125 1.792969 L 40.8125 3.375 L 39.230469 3.375 Z M 39.230469 1.792969"></path></clipPath><clipPath id="792fe21068"><rect height="15" y="0" width="75" x="0"></rect></clipPath></defs><g clip-path="url(#5b46bfc109)"><path fill-rule="nonzero" fill-opacity="1" d="M 1.089844 0 L 80.925781 0 L 80.925781 29.03125 L 1.089844 29.03125 Z M 1.089844 0" fill="#ffffff"></path><path fill-rule="nonzero" fill-opacity="1" d="M 1.089844 0 L 80.925781 0 L 80.925781 29.03125 L 1.089844 29.03125 Z M 1.089844 0" fill="#ffffff"></path></g><g transform="matrix(1, 0, 0, 1, 4, 7)"><g clip-path="url(#792fe21068)"><g clip-path="url(#0fffa89f29)"><g clip-path="url(#eeaab6f263)"><g transform="matrix(1, 0, 0, 1, 0, 1)"><g clip-path="url(#2ed4a3599d)"><g clip-path="url(#5afc2e947c)"><g clip-path="url(#cbcec734d2)"><path fill-rule="nonzero" fill-opacity="1" d="M 0.71875 0.894531 L 2.605469 0.894531 L 2.605469 9.992188 L 0.71875 9.992188 Z M 0.71875 0.894531" fill="#ff48b2"></path></g></g></g></g></g></g><g clip-path="url(#edac057e5b)"><g clip-path="url(#1d86e23f46)"><g transform="matrix(1, 0, 0, 1, 7, 3)"><g clip-path="url(#d6a84cb6f9)"><g clip-path="url(#b78dbf9e64)"><g clip-path="url(#2ebc2e183d)"><rect fill-opacity="1" height="51.840002" y="-20.92" fill="#ff48b2" width="142.56" x="-41.03"></rect></g></g></g></g></g></g><g clip-path="url(#c045e3304d)"><g clip-path="url(#1622b1d621)"><g transform="matrix(1, 0, 0, 1, 16, 3)"><g clip-path="url(#37c80f43bc)"><g clip-path="url(#b74cda3152)"><g clip-path="url(#015e3644fd)"><rect fill-opacity="1" height="51.840002" y="-20.92" fill="#ff48b2" width="142.56" x="-50.03"></rect></g></g></g></g></g></g><g clip-path="url(#990b02ad80)"><g clip-path="url(#93ccbcc489)"><g transform="matrix(1, 0, 0, 1, 23, 3)"><g clip-path="url(#78066466d9)"><g clip-path="url(#58c2851327)"><g clip-path="url(#dd4fc98c80)"><rect fill-opacity="1" height="51.840002" y="-20.92" fill="#ff48b2" width="142.56" x="-57.03"></rect></g></g></g></g></g></g><g clip-path="url(#fa434b88fe)"><g clip-path="url(#cc15597e70)"><g transform="matrix(1, 0, 0, 1, 30, 2)"><g clip-path="url(#c59fd3cf7f)"><g clip-path="url(#b87a32f58a)"><g clip-path="url(#6c8dd5af4a)"><rect fill-opacity="1" height="51.840002" y="-19.92" fill="#ff48b2" width="142.56" x="-64.03"></rect></g></g></g></g></g></g><g clip-path="url(#c10d15cef4)"><g clip-path="url(#3f16ada44a)"><g transform="matrix(1, 0, 0, 1, 38, 1)"><g clip-path="url(#d1083c7638)"><g clip-path="url(#226b560b23)"><g clip-path="url(#52924bf26b)"><rect fill-opacity="1" height="51.840002" y="-18.92" fill="#ff48b2" width="142.56" x="-72.03"></rect></g></g></g></g></g></g><g clip-path="url(#681d7ae6fa)"><g clip-path="url(#944bcb70d8)"><g transform="matrix(1, 0, 0, 1, 41, 4)"><g clip-path="url(#dc73725720)"><g clip-path="url(#3d8798643c)"><g clip-path="url(#595e08788a)"><rect fill-opacity="1" height="51.840002" y="-21.92" fill="#ff48b2" width="142.56" x="-75.03"></rect></g></g></g></g></g></g><g clip-path="url(#d63ae1fc56)"><g clip-path="url(#97c69b8d00)"><g transform="matrix(1, 0, 0, 1, 48, 4)"><g clip-path="url(#b7cd051eb2)"><g clip-path="url(#4a16cc5d22)"><g clip-path="url(#ac4a733523)"><rect fill-opacity="1" height="51.840002" y="-21.92" fill="#ff48b2" width="142.56" x="-82.03"></rect></g></g></g></g></g></g><g clip-path="url(#cfb4abbd77)"><g clip-path="url(#75cea7f5a8)"><g transform="matrix(1, 0, 0, 1, 57, 4)"><g clip-path="url(#b7c9f9cd6c)"><g clip-path="url(#769e73ce57)"><g clip-path="url(#cedfd0187c)"><rect fill-opacity="1" height="51.840002" y="-21.92" fill="#ff48b2" width="142.56" x="-91.03"></rect></g></g></g></g></g></g><g clip-path="url(#3dc0ea39cb)"><g clip-path="url(#ed430c3c2e)"><g transform="matrix(1, 0, 0, 1, 65, 2)"><g clip-path="url(#7457979c15)"><g clip-path="url(#7b1c85036b)"><g clip-path="url(#eea646881e)"><rect fill-opacity="1" height="51.840002" y="-19.92" fill="#ff48b2" width="142.56" x="-99.03"></rect></g></g></g></g></g></g><g clip-path="url(#445783ffac)"><g clip-path="url(#9c6c308e09)"><g transform="matrix(1, 0, 0, 1, 69, 4)"><g clip-path="url(#6b2bd022cb)"><g clip-path="url(#91a900456b)"><g clip-path="url(#11d8686699)"><rect fill-opacity="1" height="51.840002" y="-21.92" fill="#ff48b2" width="142.56" x="-103.03"></rect></g></g></g></g></g></g><g clip-path="url(#05ab063ad8)"><path fill-rule="nonzero" fill-opacity="1" d="M 39.992188 1.871094 L 39.992188 2.09375 C 39.910156 2.472656 39.824219 2.558594 39.445312 2.640625 L 39.230469 2.640625 L 39.230469 2.667969 L 39.445312 2.667969 C 39.824219 2.75 39.910156 2.835938 39.992188 3.214844 L 39.992188 3.375 L 40.019531 3.375 L 40.019531 3.214844 C 40.101562 2.835938 40.1875 2.75 40.566406 2.667969 L 40.777344 2.667969 L 40.777344 2.640625 L 40.566406 2.640625 C 40.1875 2.558594 40.101562 2.472656 40.019531 2.09375 L 40.019531 1.871094 Z M 39.992188 1.871094" fill="#ffffff"></path></g></g></g></svg>